<?xml version="1.0" encoding="UTF-8"?>
<svg width="40px" height="40px" viewBox="0 0 40 40" version="1.1" xmlns="http://www.w3.org/2000/svg" xmlns:xlink="http://www.w3.org/1999/xlink">
    <!-- Generator: Sketch 46 (44423) - http://www.bohemiancoding.com/sketch -->
    <title>icn/claims-advisory</title>
    <desc>Created with Sketch.</desc>
    <defs></defs>
    <g id="Symbols" stroke="none" stroke-width="1" fill="none" fill-rule="evenodd">
        <g id="icn/claims-advisory" fill-rule="nonzero" fill="#FFFFFF">
            <path d="M4,6 L4,7.15566625 L4,23.3349938 L4,24.49066 L5.14285714,24.49066 L8.57142857,24.49066 L8.57142857,27.9576588 L8.57142857,30.377335 L10.4285714,28.860523 L15.8214286,24.49066 L25.7142857,24.49066 L26.8571429,24.49066 L26.8571429,23.3349938 L26.8571429,7.15566625 L26.8571429,6 L25.7142857,6 L5.14285714,6 L4,6 Z M6.28571429,8.3113325 L24.5714286,8.3113325 L24.5714286,22.1793275 L15.4285714,22.1793275 L15.0357143,22.1793275 L14.7142857,22.4321295 L10.8571429,25.5379826 L10.8571429,23.3349938 L10.8571429,22.1793275 L9.71428571,22.1793275 L6.28571429,22.1793275 L6.28571429,8.3113325 Z M29.1428571,10.622665 L29.1428571,12.9339975 L33.7142857,12.9339975 L33.7142857,26.8019925 L29.1428571,26.8019925 L29.1428571,30.1606476 L24.9642857,26.8019925 L16.3928571,26.8019925 L13.5357143,29.113325 L24.1785714,29.113325 L31.4285714,35 L31.4285714,29.113325 L36,29.113325 L36,10.622665 L29.1428571,10.622665 Z" id="Shape"></path>
        </g>
    </g>
</svg>