<?xml version="1.0" encoding="UTF-8"?>
<svg width="20px" height="20px" viewBox="0 0 20 20" version="1.1" xmlns="http://www.w3.org/2000/svg" xmlns:xlink="http://www.w3.org/1999/xlink">
    <!-- Generator: Sketch 46 (44423) - http://www.bohemiancoding.com/sketch -->
    <title>icn/contact</title>
    <desc>Created with Sketch.</desc>
    <defs></defs>
    <g id="Symbols" stroke="none" stroke-width="1" fill="none" fill-rule="evenodd">
        <g id="icn/contact" fill-rule="nonzero" fill="#C3C2C2">
            <path d="M5.78315444,3.00447583 C5.58546206,3.02434761 5.38099153,3.10098173 5.18350459,3.23871405 C4.94901436,3.40265565 4.43401873,3.81047944 3.95609629,4.26936224 C3.71713508,4.49880362 3.49411016,4.73931412 3.31896833,4.97207691 C3.14382648,5.20483969 2.99109685,5.41177406 3.00040434,5.70290017 C3.00942092,5.98507467 3.0331438,6.80616565 3.62816278,8.07339099 C4.22318178,9.34061634 5.38607581,11.0865188 7.6476907,13.3484358 C9.90975554,15.6111051 11.6556049,16.7728574 12.9227355,17.3679637 C14.1898661,17.96307 15.0020529,17.9865697 15.2838568,17.9957222 C15.5748822,18.0047319 15.7914436,17.8523717 16.0240496,17.6771582 C16.2566556,17.5019447 16.4974267,17.2790225 16.7267643,17.0400302 C17.1854391,16.562046 17.5935395,16.0472541 17.7574124,15.8126219 C18.1249154,15.2885831 18.0598246,14.6754321 17.6637172,14.397823 C17.4055289,14.2172364 14.9481683,12.5834202 14.5905117,12.3646353 C14.2423777,12.1520903 13.8288343,12.2540095 13.4567987,12.448961 C13.4541002,12.4503702 13.4501365,12.4475219 13.4474291,12.448961 C13.1366774,12.6127197 12.2894408,13.0970683 12.0794779,13.2172624 C11.9252066,13.1203152 11.2471246,12.6750998 9.78394331,11.2121832 C8.33419924,9.76270147 7.88238346,9.09015039 7.77886411,8.92601813 C7.89565101,8.72202624 8.38591544,7.84674703 8.54716548,7.53932784 C8.74427908,7.16625808 8.84642944,6.7495701 8.62212171,6.39624531 C8.52168726,6.23771648 8.07134962,5.53864714 7.61021259,4.8409035 C7.14907555,4.14315987 6.70880394,3.48542508 6.59830346,3.33240934 C6.4588291,3.13950713 6.23176689,3.02556997 5.97991455,3.00447583 C5.91695146,2.99920229 5.84905191,2.9978519 5.78315444,3.00447583 Z" id="Shape"></path>
        </g>
    </g>
</svg>