<?xml version="1.0" encoding="UTF-8"?>
<svg width="40px" height="40px" viewBox="0 0 40 40" version="1.1" xmlns="http://www.w3.org/2000/svg" xmlns:xlink="http://www.w3.org/1999/xlink">
    <!-- Generator: Sketch 46 (44423) - http://www.bohemiancoding.com/sketch -->
    <title>icn/develope</title>
    <desc>Created with Sketch.</desc>
    <defs></defs>
    <g id="Symbols" stroke="none" stroke-width="1" fill="none" fill-rule="evenodd">
        <g id="icn/develope" fill-rule="nonzero" fill="#FFFFFF">
            <path d="M38,5.95121951 L38,8.14634146 L15.8795181,8.14634146 L15.8795181,5.95121951 L38,5.95121951 Z M38,18.2439024 L38,20.4390244 L15.8795181,20.4390244 L15.8795181,18.2439024 L38,18.2439024 Z M3.33218589,27.0243902 L11.5111876,27.0243902 C12.2470167,27.0243902 12.8433735,27.6278908 12.8433735,28.3728223 L12.8433735,36.6515679 C12.8433735,37.3964995 12.2470167,38 11.5111876,38 L3.33218589,38 C2.59635679,38 2,37.3964995 2,36.6515679 L2,28.3728223 C2,27.6278908 2.59635679,27.0243902 3.33218589,27.0243902 Z M3.33218589,28.3414634 C3.31493021,28.3414634 3.30120482,28.3553532 3.30120482,28.3728223 L3.30120482,36.6515679 C3.30120482,36.669037 3.31493021,36.6829268 3.33218589,36.6829268 L11.5111876,36.6829268 C11.5284433,36.6829268 11.5421687,36.669037 11.5421687,36.6515679 L11.5421687,28.3728223 C11.5421687,28.3553532 11.5284433,28.3414634 11.5111876,28.3414634 L3.33218589,28.3414634 Z M38,31.4146341 L38,33.6097561 L15.8795181,33.6097561 L15.8795181,31.4146341 L38,31.4146341 Z M3.33218589,2 L11.5111876,2 C12.0071943,2 12.4096386,2.40735213 12.4096386,2.90940767 L12.4096386,11.1881533 C12.4096386,11.6902088 12.0071943,12.097561 11.5111876,12.097561 L3.33218589,12.097561 C2.83617921,12.097561 2.43373494,11.6902088 2.43373494,11.1881533 L2.43373494,2.90940767 C2.43373494,2.40735213 2.83617921,2 3.33218589,2 Z M7.00543435,7.28785895 L5.28033408,5.86832637 L4.26653119,6.98698584 L7.15123633,9.38306307 L10.5759771,5.69571601 L9.41533011,4.71518656 L7.00543435,7.28785895 Z M3.33218589,14.7317073 L11.5111876,14.7317073 C12.2467395,14.7317073 12.8433735,15.3356174 12.8433735,16.0801394 L12.8433735,24.358885 C12.8433735,25.1038166 12.2470167,25.7073171 11.5111876,25.7073171 L3.33218589,25.7073171 C2.59635679,25.7073171 2,25.1038166 2,24.358885 L2,16.0801394 C2,15.3356174 2.59663402,14.7317073 3.33218589,14.7317073 Z M7.00543435,20.4585907 L5.28033408,19.0390581 L4.26653119,20.1577175 L7.15123633,22.5537948 L10.5759771,18.8664477 L9.41533011,17.8859183 L7.00543435,20.4585907 Z" id="Shape"></path>
        </g>
    </g>
</svg>