<?xml version="1.0" encoding="UTF-8"?>
<svg width="40px" height="40px" viewBox="0 0 40 40" version="1.1" xmlns="http://www.w3.org/2000/svg" xmlns:xlink="http://www.w3.org/1999/xlink">
    <!-- Generator: Sketch 46 (44423) - http://www.bohemiancoding.com/sketch -->
    <title>icn/employee-benefits</title>
    <desc>Created with Sketch.</desc>
    <defs></defs>
    <g id="Symbols" stroke="none" stroke-width="1" fill="none" fill-rule="evenodd">
        <g id="icn/employee-benefits" fill-rule="nonzero" fill="#FFFFFF">
            <path d="M18.2032871,27.544887 C18.231959,27.814082 18.3574256,28.2018234 18.5157675,28.5183226 C18.5907788,28.6682582 18.6600918,28.7860879 18.7180567,28.864326 C19.0340603,29.1302787 19.1792561,29.4244608 19.1721743,29.7340471 C19.1721743,29.8764499 19.1739412,29.9881079 19.1791588,30.2312436 C19.1923796,30.8546047 19.1877442,31.1701752 19.148005,31.6101841 C19.1383452,31.693344 19.1179807,31.7749051 19.0890419,31.8485818 C18.8189927,32.575891 18.2589004,33.0832662 17.4163979,33.5158584 C17.130246,33.6627862 16.8393508,33.7895442 16.4066476,33.9627653 C16.2664182,34.0186937 16.2664182,34.0186937 16.1272975,34.073895 C15.8119287,34.1991766 15.6336448,34.272332 15.4461188,34.3555197 C14.7503894,34.6641494 14.2617181,34.9648631 13.9278719,35.3136256 C13.5473981,35.711099 13.3481724,36.1699378 13.299789,36.8303487 L13.299789,37.5286213 C13.2999015,37.8288997 13.1612035,38.112357 12.9240818,38.2963581 C12.6868753,38.4804251 12.3778947,38.5442267 12.089997,38.4698213 C8.26600221,37.5276133 5.5450786,35.8725232 3.79133664,33.7925316 C3.16390877,33.0483829 2.6998042,32.2809901 2.3743936,31.5328547 C2.25995672,31.2697586 2.17095644,31.0273421 2.1043082,30.8108391 C2.08071648,30.7342028 2.06156316,30.6660175 2.04646434,30.6069351 C2.01437931,30.478051 2.00474839,30.4185825 2,30.3423015 L2.00012177,22.4202679 C2.11062218,20.5132763 3.07585834,19.2958726 4.60935863,18.496212 C4.86632951,18.3622118 5.76039588,17.9460929 5.9278015,17.8562491 C5.97554837,17.8306242 6.01941495,17.8059711 6.05989208,17.7819642 C6.33961886,17.6160588 6.47676472,17.4680937 6.5455822,17.3479029 C6.57521839,16.9442135 6.58934852,16.6367685 6.59023632,16.3204993 C6.40316508,16.0832123 6.28611407,15.8774126 6.16504117,15.6281399 C6.02744101,15.3448394 5.92889242,15.0221054 5.83243382,14.5817728 C5.67270649,14.5135561 5.59787937,14.4682752 5.51812456,14.3664597 C5.24592915,14.0189727 5.0835176,13.5833686 5.01669934,13.025384 C4.96750524,12.6127837 5.05110151,12.2463311 5.24262784,11.9024167 C4.99679164,11.0235115 4.88022416,10.1754724 4.94819999,9.30428426 C5.00529,8.57261016 5.19893259,7.94739513 5.57977249,7.42016405 C5.95548662,6.90002906 6.5632731,6.53530195 7.30225734,6.36856612 C7.85273316,5.85000943 8.62110905,5.58190216 9.49943729,5.58194275 C11.442218,5.61753119 12.9140482,6.47079431 13.5263647,7.87194477 C13.996856,8.94855889 13.9952945,10.2094428 13.6315864,11.8453819 C13.8421102,12.1952007 13.9353593,12.5864087 13.8829797,13.0257146 C13.8156943,13.5837277 13.6533035,14.0195407 13.3816057,14.366445 C13.2970449,14.4744127 13.2171655,14.5195564 13.0625764,14.5787104 C12.931403,15.0980888 12.8494568,15.3762837 12.7108846,15.6532915 C12.5936714,15.8876017 12.4786471,16.0807561 12.3506773,16.2534743 C12.287959,16.6201978 12.2997576,16.9069977 12.3105115,17.2415853 C12.3113118,17.2433743 12.4189091,17.3151055 12.6302162,17.4317449 C13.1921561,16.3059081 14.1131188,15.4828127 15.3005379,14.8897569 C15.4486148,14.8157998 16.618377,14.2691771 16.863921,14.1299788 C17.1711839,13.9557923 17.3185441,13.8134185 17.3678707,13.7434335 C17.3975311,13.3393856 17.4116615,13.0320013 17.4125312,12.7157945 C17.2207982,12.4760756 17.1056278,12.282714 16.988623,12.0488206 C16.8501073,11.7719258 16.7682812,11.4941091 16.6559243,10.9815431 C16.482429,10.9151607 16.4024903,10.8699605 16.3179137,10.7619891 C16.0457207,10.4145057 15.8833112,9.97890425 15.8164884,9.4209133 C15.7641299,8.98177169 15.8574333,8.59070294 16.0679136,8.24093284 C15.7039928,6.60490385 15.7023161,5.34188344 16.1732447,4.26724171 C16.7837111,2.87417936 18.251132,2.03570123 20.2000705,2 C21.0881344,1.99995807 21.8511148,2.25432075 22.3967468,2.76398593 C23.1360072,2.93072095 23.7441249,3.295534 24.1197578,3.81572452 C24.5005139,4.34301032 24.6942368,4.96838794 24.7513078,5.69981363 C24.8192494,6.57056654 24.7027195,7.41774196 24.4568524,8.29789681 C24.6483977,8.64182744 24.7320011,9.00832167 24.6827688,9.42124394 C24.6154833,9.97925706 24.4530926,10.41507 24.1813944,10.7619748 C24.1016509,10.8637911 24.0268817,10.9090145 23.8835756,10.9702259 C23.7707223,11.417413 23.6721337,11.7402306 23.5344666,12.0236691 C23.4131567,12.2734305 23.2963143,12.4789034 23.1744972,12.6469143 C23.1098725,13.0312453 23.1217595,13.3299108 23.1318847,13.6576206 C23.2029769,13.8128172 23.3507874,13.9553188 23.6581818,14.1301528 C23.899503,14.267407 25.0559302,14.8068442 25.221625,14.8899403 C26.3963389,15.4790596 27.3092904,16.3034709 27.8564221,17.4386794 C28.0802451,17.3150377 28.1880895,17.2431382 28.1676103,17.3260623 C28.197271,16.906193 28.2111519,16.6164408 28.2122599,16.3202175 C28.0205872,16.0805463 27.9054168,15.8871846 27.788412,15.6532912 C27.6498963,15.3763965 27.5680702,15.0985798 27.4557134,14.5860138 C27.282218,14.5196314 27.2022793,14.4744312 27.1177027,14.3664598 C26.8455098,14.0189764 26.6831003,13.5833749 26.6162774,13.025384 C26.5639181,12.5862358 26.657225,12.1951621 26.8677118,11.8453883 C26.5040023,10.2094461 26.5024402,8.94856028 26.972932,7.87194483 C27.5852485,6.47079446 29.0570786,5.61753148 31.0044383,5.58190081 C31.8783378,5.58190081 32.646574,5.8500113 33.1970454,6.36857158 C33.9360757,6.53535929 34.5440003,6.9001242 34.9195468,7.42019521 C35.3003029,7.94748101 35.4940258,8.57285863 35.5510968,9.30428432 C35.6190385,10.1750373 35.5025085,11.0222126 35.2566414,11.9023675 C35.4481867,12.2462981 35.5317901,12.6127924 35.4825578,13.0257146 C35.4152723,13.5837277 35.2528816,14.0195407 34.9811834,14.3664455 C34.90144,14.4682618 34.8266707,14.5134852 34.6833646,14.5746966 C34.5705114,15.0218836 34.4719228,15.3447013 34.3342557,15.6281398 C34.2129458,15.8779012 34.0961033,16.0833741 33.9742863,16.251385 C33.909684,16.6359493 33.9217395,16.935426 33.9331525,17.265382 C34.0224992,17.468105 34.1595378,17.6159117 34.4394411,17.7819857 C34.4804679,17.806328 34.5249784,17.8313322 34.573487,17.8573393 C34.740003,17.9466141 35.6325286,18.3619605 35.8899536,18.4962201 C37.4235223,19.2960517 38.3886776,20.513321 38.499175,22.3596082 C38.4998062,22.389938 38.4986866,30.3597582 38.4986866,30.3597582 C38.4943827,30.4212441 38.4842394,30.4821805 38.4715043,30.5286398 C38.4601785,30.5828021 38.4356953,30.6786055 38.3949886,30.8108391 C38.3283403,31.0273421 38.23934,31.2697586 38.1249031,31.5328547 C37.7994925,32.2809901 37.335388,33.0483829 36.7079602,33.7925316 C34.9542186,35.872523 32.2332945,37.5276133 28.4120328,38.4691316 C28.1214021,38.5442267 27.8124215,38.4804251 27.575215,38.2963581 C27.3380933,38.112357 27.1993953,37.8288997 27.1995078,37.5287149 L27.1995078,36.8754046 C27.1513851,36.1713601 26.9517487,35.7126117 26.5710635,35.3132473 C26.2409274,34.9669124 25.7527784,34.6670819 25.0528467,34.3553724 C24.8669021,34.2725633 24.6943028,34.2009636 24.3794903,34.0740657 C24.2382077,34.017169 24.2382077,34.017169 24.0958773,33.9594998 C23.6772346,33.7892036 23.3890399,33.6619457 23.1051206,33.5157155 C22.2638277,33.0824148 21.7030463,32.5744412 21.4343789,31.8528375 C21.4038157,31.7749051 21.3834511,31.693344 21.3731308,31.6037791 C21.3338533,31.1679776 21.3293534,30.8536723 21.3415726,30.279862 C21.3478559,29.9874615 21.349622,29.8761429 21.3496572,29.7382423 C21.3441672,29.4111314 21.5036246,29.1032186 21.7804651,28.914834 C21.850054,28.8229733 21.9200736,28.6951479 22.0047578,28.5209003 C22.1507947,28.2204115 22.2650123,27.835909 22.2960743,27.5442873 C22.3377862,27.1614352 22.6004237,26.8438436 22.958772,26.7266719 C22.9836349,26.6521718 23.0161175,26.5147196 23.0388975,26.3248399 C22.7519611,26.0419711 22.6363408,25.6367847 22.7573371,25.2623026 C23.0017486,24.5263688 23.1872582,23.4416958 23.1278438,22.6797076 C23.0921518,22.2219584 22.9926697,21.8733952 22.8369155,21.6577091 C22.6679954,21.423791 22.4440098,21.3005234 22.011039,21.2402118 C21.7164266,21.194203 21.4593463,21.015139 21.3148212,20.7563699 C21.2662046,20.6709045 20.8084053,20.5055451 20.2246788,20.4997714 C18.7464582,20.531725 18.0584574,20.9234854 17.6887727,21.7691789 C17.3461768,22.5529043 17.36409,23.8488186 17.7463775,25.3221782 C17.8485339,25.7080832 17.7042936,26.1172795 17.4274921,26.3112709 C17.4628031,26.5324173 17.499997,26.6503685 17.5438749,26.7277748 C17.9005098,26.8458318 18.1616475,27.162692 18.2032871,27.544887 Z M11.8695991,13.1052324 C11.8997805,13.0419809 11.9259154,12.9495397 11.9448211,12.8000768 C11.6875539,12.5631646 11.5748768,12.201587 11.6603171,11.8516857 C12.013159,10.4911611 12.0409312,9.32230872 11.7407296,8.63536436 C11.4151433,7.89033294 10.8139994,7.55291444 9.48933473,7.52362806 C8.97041304,7.52949683 8.56597028,7.67079802 8.5424839,7.71216205 C8.39075384,7.98041338 8.12076373,8.16063384 7.81935155,8.19714102 C7.4623151,8.24682873 7.2904335,8.35045371 7.13256708,8.56900241 C6.98964094,8.76686796 6.89409088,9.07218434 6.86415717,9.45581905 C6.81110348,10.1357626 6.98310942,11.1016554 7.21333024,11.7941915 C7.33178682,12.1697711 7.21161177,12.5782867 6.95348057,12.7886719 C6.97236432,12.9448463 6.99903261,13.0402972 7.03005935,13.1052044 C7.36390101,13.2418504 7.59752255,13.5547307 7.62848063,13.9153597 C7.65213753,14.1364359 7.76365999,14.4574962 7.91977162,14.7789094 C7.98944989,14.9223678 8.05578613,15.0411007 8.09984142,15.1019064 C8.37587965,15.2935903 8.535337,15.6015031 8.52988221,15.9244187 C8.52988221,16.0042066 8.53011816,16.0664692 8.5308301,16.2058742 C8.5313232,16.301795 8.5313232,16.301795 8.53166103,16.3976547 C8.53299826,16.8923449 8.5221589,17.2339202 8.48321335,17.6653881 C8.47355357,17.748548 8.453189,17.8301091 8.42421976,17.9038677 C8.18137817,18.5572002 7.69620304,19.0588583 7.03493987,19.4510515 C6.92767333,19.5146709 6.81599099,19.5760119 6.69639146,19.6375136 C6.50396346,19.7364659 6.53678453,19.7211387 5.97942747,19.9772844 C5.77855178,20.0696012 5.64513232,20.133538 5.51553148,20.2011198 C4.39634182,20.7847334 4.02358123,21.2377403 3.93997187,22.412466 L3.93476566,30.2239633 C4.03764559,30.7201646 4.42801975,31.540766 5.27607416,32.5465848 C6.5459377,34.0526822 8.58730298,35.3534763 11.4475603,36.2364888 C11.5993414,35.3343491 11.9749006,34.5583274 12.5316992,33.9766511 C13.0823946,33.4013509 13.7249448,33.0059294 14.658381,32.5918512 C14.9407103,32.4666081 16.0715454,32.0062594 16.3156753,31.8935928 C16.3956015,31.8567066 16.4685179,31.8213791 16.5355269,31.7869726 C16.9384984,31.5800627 17.1475565,31.3960084 17.2104009,31.2923341 C17.2275615,31.0631738 17.234874,30.8442455 17.235824,30.5844802 C17.2362484,30.4684469 17.2357201,30.3824681 17.2336617,30.1571764 C17.2092575,30.0891109 17.1902311,30.0694594 17.1688254,30.0405631 C17.0035307,29.8174467 16.8720845,29.6121227 16.7636315,29.3953439 C16.6245196,29.1172828 16.5331451,28.8054364 16.4305526,28.325495 C16.4195566,28.2734623 16.4134876,28.2447447 16.4080132,28.2186098 C16.2241074,28.1567697 16.1381199,28.1110357 16.0479057,27.9958477 C15.7666146,27.6366861 15.5961256,27.1659146 15.5240072,26.5647868 C15.46758,26.0932944 15.5683441,25.6819747 15.7971972,25.3151516 C15.3978571,23.5419653 15.3948889,22.1459056 15.903159,20.9831823 C16.5556771,19.4904769 18.1094212,18.5964457 20.2046493,18.5579953 C21.1826985,18.5579953 22.0093675,18.8421613 22.5814953,19.4133846 C23.3553545,19.5905189 23.991266,19.9796387 24.3897499,20.5314537 C24.7961068,21.0941712 25.0062791,21.7584085 25.0663027,22.5281994 C25.1398521,23.4714705 25.0060457,24.392542 24.7277949,25.3722386 C24.9377634,25.7349906 25.028902,26.1214564 24.975281,26.5648584 C24.9041543,27.157727 24.7361821,27.6094576 24.4514389,27.9732586 C24.367767,28.0801621 24.2890794,28.1301556 24.1403549,28.1978471 C24.0191131,28.6542762 23.8942346,29.0465779 23.7369367,29.3702378 C23.620664,29.6094833 23.4935266,29.8242562 23.3544682,30.0159926 C23.3339319,30.044308 23.3160126,30.0637714 23.288722,30.0889813 C23.2860391,30.3797016 23.2854973,30.4672346 23.2859547,30.5856249 C23.2869549,30.8445193 23.2942959,31.0634299 23.2901421,31.2085637 C23.3742376,31.3957758 23.5832009,31.5793756 23.9865474,31.7871156 C24.053242,31.821466 24.1253984,31.8566894 24.2040845,31.8934014 C24.4557522,32.0108199 25.5790458,32.4752288 25.8412472,32.5919985 C26.7828593,33.0113391 27.4211408,33.4033808 27.967959,33.9770295 C28.5239898,34.5603426 28.9003024,35.3369396 29.0517711,36.2364781 C31.9120104,35.3534659 33.9533642,34.0526762 35.2232226,32.5465848 C36.0712769,31.5407661 36.4616479,30.7201712 36.5593249,30.2747177 L36.5597768,22.4725473 C36.4746187,21.2364289 36.1014091,20.7840255 34.9837498,20.2011117 C34.8540399,20.1334615 34.720557,20.0695017 34.5193671,19.9770601 C33.9642141,19.7219814 33.9947436,19.7362378 33.8022005,19.6371934 C33.6828569,19.5758028 33.5713892,19.5145566 33.4643204,19.4510298 C32.8027316,19.0584916 32.3178162,18.557179 32.076671,17.9080416 C32.0461078,17.8301091 32.0257432,17.748548 32.015424,17.6589949 C31.9771188,17.2342063 31.966286,16.8925904 31.9676344,16.3973082 C31.9679728,16.3017018 31.9679728,16.3017018 31.968465,16.2060392 C31.9691782,16.0665383 31.9694146,16.0042389 31.9694234,15.9223192 C31.9719143,15.6257386 32.1093326,15.3501011 32.3366993,15.1696665 C32.4434141,15.0412781 32.5098517,14.9223587 32.5795252,14.7789093 C32.7357909,14.4571791 32.8471531,14.1366804 32.870316,13.9205433 C32.9017288,13.5552039 33.135364,13.2419272 33.4691771,13.1052324 C33.4998475,13.0409563 33.5263391,12.9465372 33.5453122,12.7927685 C33.276758,12.5393194 33.173259,12.1515506 33.2871109,11.7906552 C33.5164099,11.0996243 33.6881728,10.135521 33.6351396,9.45581887 C33.6069113,9.0940384 33.499733,8.78434889 33.3442076,8.56897117 C33.1789833,8.34016209 33.0288825,8.24571554 32.6843128,8.19770966 C32.3785331,8.16063384 32.1085429,7.98041338 31.9570146,7.71251804 C31.9333266,7.67079817 31.5288839,7.52949709 31.0240533,7.52367245 C29.6852973,7.55291463 29.0841535,7.89033306 28.7585672,8.63536433 C28.4583655,9.32230872 28.4861378,10.4911611 28.8403082,11.8570517 C28.9260521,12.2205684 28.7957481,12.5998307 28.5530594,12.7886779 C28.571943,12.944847 28.5986122,13.0402994 28.6296373,13.1052043 C28.963479,13.2418503 29.1971006,13.5547307 29.2280587,13.9153596 C29.2519622,14.1387392 29.367201,14.4747246 29.5180564,14.7762859 C29.603612,14.9473126 29.7276878,15.1095309 29.7276878,15.1095309 C29.9979573,15.2935903 30.1574146,15.6015031 30.1519598,15.9244187 C30.1519598,16.0042062 30.1521958,16.0664686 30.1529077,16.205873 C30.1534008,16.3017944 30.1534008,16.3017944 30.1537386,16.3976547 C30.1550758,16.8923446 30.1442365,17.2339201 30.105291,17.6653881 C30.0956312,17.748548 30.0752666,17.8301091 30.0463413,17.9037495 C29.7059782,18.8208668 29.0744417,19.2643017 27.7495084,19.8041471 C27.4769443,19.9195947 27.1666393,19.9041797 26.9068374,19.7622908 C26.6471154,19.6204456 26.4662865,19.3677292 26.4157519,19.0762917 C26.2019023,17.8520074 25.6523079,17.2765963 24.3449948,16.6209781 C24.1790176,16.5377406 24.0275799,16.4674402 23.7393555,16.3376242 C23.6504839,16.2976185 23.6504839,16.2976185 23.5610609,16.2572386 C23.1805726,16.0850629 22.9372602,15.9664003 22.6910008,15.8263376 C22.0004053,15.4335539 21.5183022,14.9527625 21.276882,14.3035709 C21.2463187,14.2256384 21.2259542,14.1440774 21.2156326,14.0544981 C21.1773489,13.6294494 21.1665096,13.2878739 21.1678467,12.7931841 C21.1681846,12.6973237 21.1681846,12.6973237 21.1686777,12.6014023 C21.1693896,12.4619979 21.1696255,12.3997355 21.1696344,12.3178485 C21.1721252,12.021268 21.3095436,11.7456304 21.5369102,11.5651958 C21.6436251,11.4368074 21.7100627,11.317888 21.7797362,11.1744386 C21.9360019,10.8527084 22.0473641,10.5322097 22.070527,10.3160726 C22.1019398,9.95073324 22.335575,9.63745654 22.6693881,9.50076167 C22.7000585,9.4364856 22.7265501,9.34206651 22.7455231,9.18829784 C22.476969,8.93484874 22.37347,8.54707989 22.4873219,8.18618441 C22.7166208,7.49515456 22.8883838,6.53105025 22.8353506,5.85134818 C22.8071223,5.48956771 22.6999439,5.1798782 22.5444185,4.96450048 C22.3791943,4.7356914 22.2290935,4.64124485 21.8845237,4.59323897 C21.578744,4.55616315 21.3087539,4.37594269 21.1572255,4.10804727 C21.1404405,4.07848504 20.7354773,3.94744079 20.2243571,3.94173075 C18.8871239,3.97094305 18.2846707,4.3097466 17.9586764,5.053654 C17.659018,5.73746348 17.6864477,6.88740714 18.0405191,8.25258102 C18.1262632,8.61609828 17.9959587,8.99536122 17.7532703,9.18420664 C17.7721541,9.34037761 17.7988224,9.43582775 17.8298483,9.50073365 C18.16369,9.63737967 18.3973116,9.95026002 18.4282697,10.3108889 C18.4521731,10.5342685 18.567412,10.8702539 18.7182674,11.1718152 C18.803823,11.3428419 18.9278988,11.5050602 18.9278988,11.5050602 C19.1981683,11.6891196 19.3576256,11.9970324 19.3521708,12.3199481 C19.3521708,12.3997355 19.3524068,12.4619979 19.3531187,12.6014023 C19.3536118,12.6973237 19.3536118,12.6973237 19.3539496,12.7931841 C19.3552868,13.2878739 19.3444474,13.6294494 19.3055019,14.0609174 C19.2958422,14.1440774 19.2754776,14.2256384 19.246533,14.2993307 C19.0032726,14.9543575 18.5219391,15.43453 17.8304893,15.8265115 C17.5842342,15.966113 17.3396086,16.0837066 16.9508653,16.2564578 C16.8588342,16.2972669 16.8588342,16.2972669 16.7674419,16.3376807 C16.4784294,16.4655819 16.3212351,16.5376039 16.1539354,16.6211616 C14.8483343,17.2732432 14.2984271,17.8501165 14.0835979,19.075987 C14.0330102,19.3677292 13.8521813,19.6204456 13.5924594,19.7622908 C13.3326575,19.9041797 13.0223525,19.9195947 12.7529563,19.8054633 C11.4236535,19.2638121 10.7930458,18.8211729 10.4545934,17.9080416 C10.4240302,17.8301091 10.4036656,17.748548 10.3933695,17.6592502 C10.3547334,17.2356486 10.3438938,16.895389 10.3454107,16.4015263 C10.3457789,16.3068863 10.3457789,16.3068863 10.3462999,16.2122008 C10.3470789,16.0696934 10.3473369,16.0060447 10.3473458,15.9223192 C10.3501082,15.5933991 10.5188278,15.2902383 10.792149,15.1141341 C10.8412474,15.0460458 11.5357859,13.2419272 11.8695991,13.1052324 Z" id="Shape"></path>
        </g>
    </g>
</svg>