<?xml version="1.0" encoding="UTF-8"?>
<svg width="40px" height="40px" viewBox="0 0 40 40" version="1.1" xmlns="http://www.w3.org/2000/svg" xmlns:xlink="http://www.w3.org/1999/xlink">
    <!-- Generator: Sketch 46 (44423) - http://www.bohemiancoding.com/sketch -->
    <title>icn/insurance-due-diligence</title>
    <desc>Created with Sketch.</desc>
    <defs></defs>
    <g id="Symbols" stroke="none" stroke-width="1" fill="none" fill-rule="evenodd">
        <g id="icn/insurance-due-diligence" fill-rule="nonzero" fill="#FFFFFF">
            <path d="M4.04269972,36.2908521 L20.7588805,36.2908765 C21.126878,36.2857001 21.4693592,36.4781072 21.6551725,36.7947541 C21.8412525,37.1118555 21.8412525,37.5042328 21.6551725,37.8213342 C21.4693592,38.1379812 21.126878,38.3303882 20.7623967,38.3252366 L2,38.3252366 L2,1 L18.761708,1 L18.9284494,1.06372784 L19.1790532,1.28851914 L29.9870262,12.0387268 L30.2039684,12.2784744 L30.268595,12.4462145 L30.268595,12.7578864 L30.2685698,28.0981806 C30.2737904,28.4653377 30.0799521,28.8066572 29.7616151,28.9914541 C29.4437317,29.1759875 29.0507587,29.1759875 28.7328753,28.9914541 C28.4145382,28.8066572 28.2206999,28.4653377 28.2258953,28.101735 L28.2258953,13.7750789 L17.4269972,13.7750789 L17.4269972,3.03438486 L4.04269972,3.03438486 L4.04269972,36.2908521 Z M19.469697,11.740694 L26.7612125,11.740694 L19.469697,4.48847841 L19.469697,11.740694 Z M35.3296648,22.85778 L35.8737776,22.0300926 L37.5956049,23.108363 L37.4612326,23.3206276 L37.0499904,23.9702292 L27.5546519,38.6158225 L26.9155409,39.6328886 L26.6948787,39.4369307 L26.0185121,38.8362769 L19.2884264,32.766142 L18.555911,32.0692516 L19.9273441,30.5783227 L20.111272,30.7460146 L20.6889092,31.2726652 L26.4970785,36.518058 L35.3296648,22.85778 Z" id="Shape"></path>
        </g>
    </g>
</svg>