<?xml version="1.0" encoding="UTF-8"?>
<svg width="40px" height="40px" viewBox="0 0 40 40" version="1.1" xmlns="http://www.w3.org/2000/svg" xmlns:xlink="http://www.w3.org/1999/xlink">
    <!-- Generator: Sketch 46 (44423) - http://www.bohemiancoding.com/sketch -->
    <title>icn/insurance</title>
    <desc>Created with Sketch.</desc>
    <defs></defs>
    <g id="Symbols" stroke="none" stroke-width="1" fill="none" fill-rule="evenodd">
        <g id="icn/insurance" fill-rule="nonzero" fill="#FFFFFF">
            <g id="Group" transform="translate(0.000000, 5.000000)">
                <g id="Handshake">
                    <path d="M24.7321429,0.000429890899 C23.9415986,0.00497205627 23.1526957,0.0466370479 22.3214286,0.267389958 C21.4901614,0.488142869 20.6568157,0.843134122 19.7767857,1.42421692 C18.6812757,0.783530695 17.6223514,0.257426724 16.6071429,0.133909925 C15.3485743,-0.0192156649 14.1748614,0.0633578604 12.8125,0.08941658 C11.2001523,0.120418831 10.1459283,0.948531096 8.4375,1.6021903 C6.72907171,2.2558495 4.53160629,2.89249729 1.42857143,2.89249729 L0,2.89249729 L0,4.31628431 L0,15.7065805 L0,16.5964474 L0.803571429,16.9968875 L3.4375,18.2871945 L12.8125,28.6986371 L12.8571429,28.7431305 C13.9295514,29.8015923 15.3749157,30.0603812 16.6517857,29.9889441 C17.9286557,29.9175127 19.1310886,29.5432347 20.0892857,28.9655972 C22.1968257,27.6951449 27.9464286,23.7153825 27.9464286,23.7153825 L28.0803571,23.6263959 L28.1696429,23.5374092 C28.84906,22.8666859 29.18823,22.0438594 29.4196429,21.1792619 L34.9107143,18.4206745 L39.0178571,17.0413809 L40,16.7299275 L40,15.7065805 L40,4.31628431 L40,2.89249729 L38.5714286,2.89249729 C35.4728229,2.89249729 33.2696186,2.22529474 31.5625,1.55769695 C29.8553814,0.890099161 28.8162986,0.0762417092 27.1875,0.0449232355 C26.31487,0.0284683864 25.5226871,-0.00411227447 24.7321429,0.000429890899 Z M24.7767857,2.84800394 C25.41776,2.84435933 26.1587014,2.87478125 27.0982143,2.89249729 C27.2465586,2.89534486 28.6239043,3.47965111 30.5357143,4.22729763 C32.15377,4.8600656 34.4007086,5.42398208 37.1428571,5.60659131 L37.1428571,14.6832336 L33.8392857,15.7955672 L33.75,15.7955672 L33.6607143,15.8400606 L29.3303571,18.0202344 C29.0930871,17.3721536 28.7599686,16.7679967 28.2589286,16.2405007 L28.1696429,16.1070206 L22.0982143,8.67663208 L21.2053571,7.56429847 L20.0892857,8.45416536 L16.25,11.5686995 C14.9622986,12.4604928 13.9182943,12.2044603 12.8571429,11.7021795 C12.5489143,11.5562841 12.5654257,11.510468 12.3214286,11.3462328 L18.8392857,5.96253806 L18.8839286,5.91804472 L18.9285714,5.87355137 C20.8663486,3.95929535 22.0514629,3.29921259 23.0803571,3.02597732 C23.5948043,2.88935969 24.1358114,2.85164855 24.7767857,2.84800394 Z M14.8214286,2.89249729 C15.3692229,2.88310841 15.82607,2.88541252 16.25,2.93699063 C16.6235457,2.98243934 17.0466671,3.29572516 17.4107143,3.42641742 C17.2657743,3.56260265 17.1584786,3.63594961 17.0089286,3.78236418 C16.9739,3.81666179 16.9549429,3.8364809 16.9196429,3.87135087 L9.10714286,10.3228858 L7.90178571,11.3017394 L8.97321429,12.414073 C8.97321429,12.414073 10.004723,13.5243108 11.6071429,14.2827935 C13.2095629,15.0412762 15.6780586,15.4668817 17.9017857,13.9268467 L17.9464286,13.8823534 L17.9910714,13.8378601 L20.7589286,11.5686995 L26.0267857,18.0202344 L26.0714286,18.1092211 L26.1160714,18.1537145 C27.0591757,19.0847502 27.0384957,20.5475988 26.1160714,21.4907153 C26.1057857,21.501109 26.1265,21.5248862 26.1160714,21.5352087 C26.1046186,21.5431021 25.91533,21.6532833 25.8928571,21.6686887 L24.0178571,19.1325681 L21.6964286,20.8233152 L23.5267857,23.2704491 C22.7866743,23.7703535 22.4504014,24.0298345 21.6517857,24.5607561 L19.7321429,21.9801421 L17.4107143,23.6708892 L19.2410714,26.1180232 C19.0799571,26.2193712 18.7417886,26.4426793 18.6160714,26.5184633 C18.1642686,26.7908266 17.2959871,27.0978364 16.5178571,27.1413701 C15.7842686,27.1824179 15.2312471,27.0155215 14.9553571,26.7854233 L14.9107143,26.74093 L5.35714286,16.1960073 L5.17857143,15.9735406 L4.91071429,15.8400606 L2.85714286,14.8167136 L2.85714286,5.60659131 C5.58802929,5.42683108 7.85046686,4.88925181 9.46428571,4.27179097 C11.374786,3.54081729 12.73699,2.94015927 12.9017857,2.93699063 C13.6348914,2.92296775 14.2736343,2.90188617 14.8214286,2.89249729 Z" id="Shape"></path>
                </g>
            </g>
        </g>
    </g>
</svg>