<?xml version="1.0" encoding="UTF-8"?>
<svg width="40px" height="40px" viewBox="0 0 40 40" version="1.1" xmlns="http://www.w3.org/2000/svg" xmlns:xlink="http://www.w3.org/1999/xlink">
    <!-- Generator: Sketch 46 (44423) - http://www.bohemiancoding.com/sketch -->
    <title>icn/reinsurance</title>
    <desc>Created with Sketch.</desc>
    <defs></defs>
    <g id="Symbols" stroke="none" stroke-width="1" fill="none" fill-rule="evenodd">
        <g id="icn/reinsurance" stroke="#FFFFFF" stroke-width="0.5" fill="#FFFFFF" fill-rule="nonzero">
            <path d="M19.8125,1.00338605 C19.780986,1.00924831 19.7498757,1.01717577 19.7193627,1.0271191 C19.3724239,1.10631402 19.1286966,1.42429719 19.1372549,1.78657672 L19.1372549,4.08868262 C9.68354412,4.42324193 2,11.0602552 2,20.7730172 C2.00191772,21.1098661 2.22127722,21.4051854 2.53884297,21.4984509 C2.85640871,21.5917163 3.19630396,21.4606436 3.37377451,21.176479 C3.37377451,21.176479 5.00642424,18.4946443 8.70588235,18.4946443 C10.7766193,18.4946443 12.5942242,19.5718787 13.6654412,21.2002121 C13.8020519,21.4049129 14.027969,21.5289049 14.2708333,21.5324748 L14.317402,21.5324748 C14.5602663,21.5289049 14.7861834,21.4049129 14.9227941,21.2002121 C15.8634565,19.7694463 17.3773035,18.7648662 19.1372549,18.5421104 L19.1372549,33.6837967 C19.1372549,35.7901258 17.4775513,37.4810848 15.4117647,37.4810848 C13.3459782,37.4810848 11.6862745,35.7901258 11.6862745,33.6837967 C11.6900747,33.409909 11.5488968,33.1551524 11.3168006,33.0170782 C11.0847044,32.8790039 10.7976485,32.8790039 10.5655523,33.0170782 C10.3334561,33.1551524 10.1922782,33.409909 10.1960784,33.6837967 C10.1960784,36.6111526 12.5405316,39 15.4117647,39 C18.2829978,39 20.627451,36.6111526 20.627451,33.6837967 L20.627451,18.5421104 C22.3872504,18.7648107 23.9004841,19.7691691 24.8419118,21.2002121 C24.9785225,21.4049129 25.2044396,21.5289049 25.4473039,21.5324748 L25.4938725,21.5324748 C25.7367369,21.5289049 25.962654,21.4049129 26.0992647,21.2002121 C27.1696904,19.5720739 28.9872602,18.4946443 31.0588235,18.4946443 C34.0098089,18.4946443 36.4607843,21.2714112 36.4607843,21.2714112 C36.6653172,21.5076839 36.9917353,21.5907006 37.2811919,21.4800625 C37.5706485,21.3694244 37.7630257,21.0881101 37.7647059,20.7730172 C37.7631911,11.0603076 30.0810873,4.42324451 20.627451,4.08868262 L20.627451,1.78657672 C20.6350864,1.56810676 20.5499986,1.35687653 20.3939488,1.20690826 C20.2378989,1.05693999 20.0260199,0.982776832 19.8125,1.00338605 L19.8125,1.00338605 Z M19.8823529,5.58386481 C28.3807415,5.58386481 35.1695898,10.8580276 36.0882353,18.9455723 C34.9390497,18.0018133 33.3220432,16.9757291 31.0588235,16.9757291 C28.8150755,16.9757291 26.8366316,18.0300856 25.4705882,19.6338307 C24.1042818,18.0302679 22.1261009,16.9757291 19.8823529,16.9757291 C17.6386049,16.9757291 15.660161,18.0300856 14.2941176,19.6338307 C12.9276533,18.0302117 10.9490522,16.9757291 8.70588235,16.9757291 C6.42949191,16.9757291 4.79234625,17.8376952 3.6997549,18.7082418 C4.72272481,10.754714 11.4667038,5.58386481 19.8823529,5.58386481 Z" id="Shape"></path>
        </g>
    </g>
</svg>