<?xml version="1.0" encoding="UTF-8"?>
<svg width="40px" height="40px" viewBox="0 0 40 40" version="1.1" xmlns="http://www.w3.org/2000/svg" xmlns:xlink="http://www.w3.org/1999/xlink">
    <!-- Generator: Sketch 46 (44423) - http://www.bohemiancoding.com/sketch -->
    <title>icn/sell</title>
    <desc>Created with Sketch.</desc>
    <defs></defs>
    <g id="Symbols" stroke="none" stroke-width="1" fill="none" fill-rule="evenodd">
        <g id="icn/sell" fill-rule="nonzero" fill="#FFFFFF">
            <path d="M33.1256361,6.62502861 C33.1253117,6.62700642 33.1250289,6.62872516 33.1247951,6.63036021 C33.1248497,6.62784605 33.1251692,6.62670152 33.1256361,6.62502861 Z M33.1247951,6.63036021 C33.1246767,6.63580611 33.1258009,6.64767825 33.1293602,6.68526654 C33.1281703,6.67945143 33.1270328,6.67364243 33.125946,6.66783021 C33.1236777,6.64446438 33.1236405,6.63843229 33.1247951,6.63036021 Z M33.1050923,6.38474397 C33.1050923,5.56594324 33.7688617,4.90217391 34.5876623,4.90217391 C35.406463,4.90217391 36.0702324,5.56594324 36.0702324,6.38474397 C36.0702324,7.20354471 35.406463,7.86731404 34.5876623,7.86731404 C34.4927805,7.86731404 34.4007736,7.8559109 34.3021674,7.83377287 L27.9595143,13.6841603 C27.9644695,13.7380789 27.9663363,13.7963533 27.9663363,13.8652635 C27.9663363,14.684064 27.3025668,15.3478335 26.4837662,15.3478335 C25.6972494,15.3478335 25.0537795,14.7353744 25.0042606,13.9613604 L20.8650298,11.4667347 C20.6702904,11.5580368 20.4624491,11.6075738 20.25,11.6075738 C20.1076971,11.6075738 19.9668721,11.5843946 19.8272357,11.5407971 L15.4945834,15.018076 C15.4974669,15.0500808 15.4988038,15.0798332 15.4988038,15.1120167 C15.4988038,15.9308172 14.8350343,16.5945868 14.0162338,16.5945868 C13.7548364,16.5945868 13.5013189,16.5233759 13.2772503,16.3933564 L7.37438356,19.1292883 C7.24342245,19.8190887 6.63268383,20.3348465 5.91233766,20.3348465 C5.09353693,20.3348465 4.4297676,19.6710771 4.4297676,18.8522764 C4.4297676,18.0334758 5.09353693,17.3697064 5.91233766,17.3697064 C6.17373504,17.3697064 6.42725229,17.4409172 6.65132112,17.5709368 L12.5541878,14.8350049 C12.6851488,14.1452046 13.2958876,13.6294466 14.0162338,13.6294466 C14.1551387,13.6294466 14.2896449,13.6462207 14.4162605,13.6801205 L18.7715833,10.2181973 C18.7687461,10.1864762 18.7674299,10.1569366 18.7674299,10.1250037 C18.7674299,9.30620298 19.4311994,8.64243365 20.25,8.64243365 C21.036237,8.64243365 21.6795288,9.2544568 21.7294525,10.0280806 L25.8908039,12.5063965 C26.0762188,12.4256322 26.2779989,12.3826934 26.4837662,12.3826934 C26.5786481,12.3826934 26.6706554,12.3940965 26.7692612,12.4162345 L33.1119142,6.5658471 C33.106959,6.5119285 33.1050923,6.45365415 33.1050923,6.38474397 Z M33.1300969,6.70821426 L33.3603896,6.65747125 L33.2005042,6.48413274 L33.1119142,6.5658471 C33.1151558,6.60111946 33.1197191,6.63452778 33.125946,6.66783021 C33.1269049,6.67770681 33.1282623,6.69068044 33.1300969,6.70821426 Z M33.5951017,6.67019895 C33.5956364,6.66835814 33.5959943,6.66711947 33.5960118,6.66416651 C33.59577,6.6660152 33.5954626,6.6679394 33.5951017,6.67019895 Z M33.5906823,6.60672823 C33.5947088,6.64538619 33.596047,6.65823487 33.5960118,6.66416651 C33.5970432,6.65628062 33.5968808,6.64976893 33.5945902,6.62446409 L33.5906823,6.60672823 Z M33.1256347,22.8328352 C33.1251695,22.8344939 33.1248501,22.8356398 33.1247951,22.8381519 C33.125029,22.836517 33.1253117,22.8347984 33.1256347,22.8328352 Z M27.9457939,29.8327566 C27.9462591,29.831098 27.9465785,29.8299521 27.9466334,29.82744 C27.9463996,29.8290748 27.9461168,29.8307934 27.9457939,29.8327566 Z M33.1293603,22.8930588 C33.1257999,22.8554649 33.124676,22.8435979 33.1247951,22.8381519 C33.1236405,22.8462241 33.1236776,22.852256 33.1259461,22.8756229 C33.1270329,22.881435 33.1281703,22.8872438 33.1293603,22.8930588 Z M27.9420683,29.772533 C27.9456287,29.8101269 27.9467525,29.8219939 27.9466334,29.82744 C27.9477881,29.8193677 27.9477509,29.8133358 27.9454824,29.789969 C27.9443957,29.7841569 27.9432582,29.778348 27.9420683,29.772533 Z M33.1050923,22.5925362 C33.1050923,21.7737357 33.7688618,21.1099661 34.5876623,21.1099661 C35.4064629,21.1099661 36.0702324,21.7737357 36.0702324,22.5925362 C36.0702324,23.4113367 35.4064629,24.0751062 34.5876623,24.0751062 C34.4927805,24.0751062 34.4007732,24.0637031 34.3021673,24.0415651 L27.9595143,29.8919525 C27.9644695,29.9458711 27.9663363,30.0041455 27.9663363,30.0730557 C27.9663363,30.8918562 27.3025668,31.5556257 26.4837662,31.5556257 C25.6649657,31.5556257 25.0011962,30.8918562 25.0011962,30.0730557 C25.0011962,29.993755 25.0073318,29.9153306 25.0194908,29.8383795 L20.4846762,25.3035649 C20.407725,25.3157239 20.3293006,25.3218595 20.25,25.3218595 C20.1076971,25.3218595 19.9668721,25.2986803 19.8272357,25.2550828 L15.4945834,28.7323617 C15.4974669,28.7643665 15.4988038,28.7941189 15.4988038,28.8263024 C15.4988038,29.6451029 14.8350343,30.3088725 14.0162338,30.3088725 C13.455147,30.3088725 12.9566154,29.9933719 12.7057818,29.5073915 L6.95737253,28.6115355 C6.68103015,28.8963563 6.31270063,29.0621192 5.91233766,29.0621192 C5.09353693,29.0621192 4.4297676,28.3983498 4.4297676,27.5795492 C4.4297676,26.7607485 5.09353693,26.0969791 5.91233766,26.0969791 C6.47342472,26.0969791 6.97195641,26.4124797 7.22278976,26.8984601 L12.9711989,27.7943161 C13.2475413,27.5094953 13.6158709,27.3437324 14.0162338,27.3437324 C14.1551387,27.3437324 14.2896449,27.3605064 14.4162605,27.3944062 L18.7715833,23.932483 C18.7687461,23.9007619 18.7674299,23.8712223 18.7674299,23.8392894 C18.7674299,23.0204889 19.4311995,22.3567194 20.25,22.3567194 C21.0688005,22.3567194 21.7325701,23.0204889 21.7325701,23.8392894 C21.7325701,23.9185901 21.7264345,23.9970145 21.7142754,24.0739656 L26.24909,28.6087802 C26.3260412,28.5966212 26.4044656,28.5904856 26.4837662,28.5904856 C26.5860594,28.5904856 26.6877241,28.6018878 26.7886793,28.6238225 L33.1119349,22.7738644 C33.1069642,22.7198829 33.1050923,22.6615422 33.1050923,22.5925362 Z M27.4763268,29.787602 C27.475792,29.7894419 27.475434,29.7906808 27.4754167,29.7936361 C27.4756585,29.791787 27.4759659,29.7898622 27.4763268,29.787602 Z M33.5960119,22.8719557 C33.5957701,22.8738049 33.5954627,22.8757297 33.5951018,22.8779899 C33.5956366,22.8761499 33.5959946,22.8749111 33.5960119,22.8719557 Z M39.351162,33.1044712 L39.351162,34.9021739 L1.148838,34.9021739 L1.148838,4.90217391 L3.19845779,4.90217391 L3.19845779,33.1044712 L39.351162,33.1044712 Z" id="Combined-Shape"></path>
        </g>
    </g>
</svg>