<?xml version="1.0" encoding="UTF-8"?>
<svg width="40px" height="40px" viewBox="0 0 40 40" version="1.1" xmlns="http://www.w3.org/2000/svg" xmlns:xlink="http://www.w3.org/1999/xlink">
    <!-- Generator: Sketch 46 (44423) - http://www.bohemiancoding.com/sketch -->
    <title>icn/service</title>
    <desc>Created with Sketch.</desc>
    <defs></defs>
    <g id="Symbols" stroke="none" stroke-width="1" fill="none" fill-rule="evenodd">
        <g id="icn/service" fill-rule="nonzero" fill="#FFFFFF">
            <path d="M4.21269094,36.5260087 L4.19041459,36.3150011 L4.1362859,35.8022787 C4.12739485,35.7187762 4.11074506,35.5602814 4.08744474,35.335081 C4.04862286,34.9598628 4.00536733,34.534516 3.95878629,34.067326 C3.82570129,32.7325343 3.69261702,31.3298379 3.56839728,29.9254902 C3.49108477,29.0514451 3.41960658,28.2032228 3.35515065,27.3896928 C3.12815366,24.5246526 3,22.2480247 3,20.7743275 C3,15.935996 4.58519681,11.049692 7.39784829,7.35039256 C10.4529928,3.33215761 14.740688,1 19.6446203,1 C21.8345715,1 23.690027,1.53844166 25.2255497,2.45894627 C26.1905122,3.03741535 26.8881486,3.67083849 27.3581576,4.24566842 C29.6164352,4.42105843 32.0184424,5.99901238 33.9282812,8.55750302 C36.1270917,11.5031105 37.4208861,15.3854105 37.4208861,19.625 C37.4208861,23.9270805 37.2064036,27.8668737 36.8488654,31.3606475 C36.7236637,32.5840867 36.5894788,33.6645888 36.4552348,34.5916856 C36.4081958,34.9165395 36.3644887,35.1991134 36.325229,35.4380986 C36.3015878,35.5820096 36.2846248,35.6797128 36.2755096,35.7296006 L36.155285,36.3924442 L24.7548945,36.3924442 C23.9896418,36.8574795 23.1596264,37.2039063 22.286043,37.4180917 C21.7198599,37.9507638 20.9768118,38.25 20.210443,38.25 C19.4439409,38.25 18.700883,37.9506685 18.1358275,37.4180638 C17.3485953,37.2250616 16.5957398,36.9244658 15.8920579,36.5260087 L4.21269094,36.5260087 Z M34.9722047,33.5983471 C35.0974305,32.6954198 35.2189698,31.6632472 35.3301949,30.5039076 C35.6366488,27.3096276 35.8177215,23.6709012 35.8177215,19.625 C35.8177215,15.7398209 34.6362421,12.1958529 32.6486469,9.53319723 C30.9235484,7.22219105 28.6805453,5.80955691 26.9450605,5.80955691 L26.5277647,5.80955691 L26.4574315,5.70824456 L26.2862844,5.46166397 C26.2315295,5.38011845 26.1124801,5.22929476 25.9258588,5.03212122 C25.6109091,4.69936308 25.221656,4.36566917 24.7547674,4.0536863 C23.4153446,3.15866115 21.7230398,2.62084652 19.6446203,2.62084652 C15.2350526,2.62084652 11.4462798,4.68475495 8.6683452,8.33839304 C6.08428009,11.7370478 4.60316456,16.3033523 4.60316456,20.7743275 C4.60316456,22.5071795 4.79121588,25.4314911 5.10842052,29.0968969 C5.22286722,30.4193669 5.34746748,31.7597342 5.47511305,33.0651552 C5.54743431,33.8047788 5.60777799,34.4027163 5.65968348,34.9051622 L13.8244429,34.9051622 C12.6174123,33.6219074 11.8096563,31.9909609 11.5147595,30.1945235 L11.2138188,28.3586136 C10.2481177,28.1924212 9.50738763,27.386221 9.44628333,26.405906 C9.06729725,25.9241134 8.90688037,25.5960337 8.90688037,25.0786936 C8.90688037,24.1358133 9.47104392,23.2978613 10.3203309,22.9195992 L9.62927334,18.7142389 L9.9354145,18.7450512 L10.6699351,18.8189835 C10.7711161,18.8285181 10.938017,18.8411974 11.1775865,18.8542607 C11.5704776,18.8756843 12.0144973,18.8892752 12.5014037,18.8911188 C13.883876,18.8963536 15.338373,18.8077139 16.7981107,18.5941051 C20.9368711,17.988465 24.30521,16.5158196 26.3790501,13.9415214 L27.3498311,12.7357645 L27.4737,13.1758456 L27.7709742,14.2320002 C28.0083371,15.0750996 28.2826124,15.8237716 28.5863591,16.4835666 C28.9640653,17.3040155 29.3669239,17.9463528 29.7680112,18.4310764 C30.0056878,18.7183142 30.1722367,18.8736568 30.2837251,18.9576639 L30.6963529,19.249126 L30.674825,19.3928055 L30.6201712,19.7574207 L30.3036979,21.6878956 C31.4570462,21.6878956 32.328481,22.5729465 32.328481,23.6476464 L32.328481,26.5209652 C32.328481,27.0393856 32.1210241,27.5267286 31.7626582,27.892381 L31.7626582,29.9689478 C31.7626582,32.3132891 29.8780408,34.2273536 27.5661392,34.2273536 L27.1532466,34.2273536 C27.0040086,34.4235487 26.857524,34.6039305 26.7101129,34.7715977 L34.7948459,34.7715977 C34.8465334,34.463098 34.9046343,34.0855563 34.9722047,33.5983471 Z M27.0003165,6.17197389 C27.4438433,6.17197389 27.8018987,6.53562392 27.8018987,6.98239715 C27.8018987,7.42917039 27.4438433,7.79282041 27.0003165,7.79282041 C26.5567896,7.79282041 26.1987342,7.42917039 26.1987342,6.98239715 C26.1987342,6.53562392 26.5567896,6.17197389 27.0003165,6.17197389 Z M27.0003165,8.47062896 C27.4438433,8.47062896 27.8018987,8.83427898 27.8018987,9.28105222 C27.8018987,9.72782545 27.4438433,10.0914755 27.0003165,10.0914755 C26.5567896,10.0914755 26.1987342,9.72782545 26.1987342,9.28105222 C26.1987342,8.83427898 26.5567896,8.47062896 27.0003165,8.47062896 Z M27.0003165,10.769284 C27.4438433,10.769284 27.8018987,11.132934 27.8018987,11.5797073 C27.8018987,12.0264805 27.4438433,12.3901305 27.0003165,12.3901305 C26.5567896,12.3901305 26.1987342,12.0264805 26.1987342,11.5797073 C26.1987342,11.132934 26.5567896,10.769284 27.0003165,10.769284 Z M11.5466382,20.5000046 L12.1687411,24.2875999 L11.9049357,24.3006469 L11.2696177,24.3320678 C10.8404277,24.3535273 10.5089399,24.6839462 10.5089399,25.0786936 C10.5089399,25.1423403 10.526452,25.1753757 10.6573623,25.3425539 C10.9269825,25.6851165 11.0449246,25.914556 11.0449246,26.275162 C11.0449246,26.544353 11.2820165,26.7689559 11.5794355,26.7689559 L12.5764529,26.7689559 L12.6088766,26.9665373 L13.095126,29.9296197 C13.585951,32.9183571 15.7886846,35.255892 18.7071866,35.8868842 L18.8851113,35.9250453 L19.0119081,35.998965 L19.1341082,36.136493 C19.6984343,36.7677888 20.7224518,36.7677888 21.2863093,36.1370187 L21.408978,35.998965 L21.5357748,35.9250453 L21.7133459,35.8869603 C22.9412316,35.6216335 24.0589091,35.0482514 24.9778824,34.2273536 L22.393716,34.2273536 C22.0685599,34.9282281 21.4928784,35.3766812 20.7762658,35.3766812 L19.6446203,35.3766812 C18.9280077,35.3766812 18.3523261,34.9282281 18.0271701,34.2273536 L17.7113924,34.2273536 L17.7113924,33.4169304 C17.7113924,32.3422305 18.5828272,31.4571796 19.6446203,31.4571796 L20.7762658,31.4571796 C21.5367717,31.4571796 22.2148194,31.9185049 22.5265586,32.6065071 L27.5661392,32.6065071 C27.5892923,32.6065071 27.6114525,32.604227 27.6644,32.5968239 C27.7112973,32.5902305 27.7359561,32.5871689 27.7665927,32.5847757 L28.0158667,32.5653031 C29.2433483,32.3500654 30.1594937,31.2703947 30.1594937,29.9689478 L30.1594937,28.480716 L29.1886372,28.480716 L28.9072248,30.1945651 C28.8317579,30.6544411 28.7192144,31.110709 28.5715803,31.5629501 L28.4584348,31.6977942 C28.1772219,31.8478238 27.876678,31.9286986 27.5661392,31.9286986 L26.7084788,31.9286986 L26.8445994,31.6022139 C27.0687028,31.0647028 27.2303183,30.5044841 27.3246519,29.9296391 L28.9644076,19.9395962 C28.1509785,19.1444471 27.3340892,17.8711214 26.6592648,16.0171918 C22.9447064,19.6272794 17.2255419,20.756016 11.5466382,20.5000046 Z M15.6838608,22.8372231 C16.4398829,22.8372231 17.0512658,23.4581589 17.0512658,24.2223101 C17.0512658,24.9864614 16.4398829,25.6073972 15.6838608,25.6073972 C14.9278386,25.6073972 14.3164557,24.9864614 14.3164557,24.2223101 C14.3164557,23.4581589 14.9278386,22.8372231 15.6838608,22.8372231 Z M24.7370253,22.8372231 C25.4930475,22.8372231 26.1044304,23.4581589 26.1044304,24.2223101 C26.1044304,24.9864614 25.4930475,25.6073972 24.7370253,25.6073972 C23.9810032,25.6073972 23.3696203,24.9864614 23.3696203,24.2223101 C23.3696203,23.4581589 23.9810032,22.8372231 24.7370253,22.8372231 Z M29.4549844,26.8598695 L30.3952532,26.8598695 C30.5839284,26.8598695 30.7253165,26.7162723 30.7253165,26.5209652 L30.7253165,23.6476464 C30.7253165,23.4523393 30.5839284,23.3087421 30.3952532,23.3087421 L30.0374085,23.3087421 L29.4549844,26.8598695 Z M19.6446203,33.0780261 C19.455945,33.0780261 19.314557,33.2216233 19.314557,33.4169304 C19.314557,33.6122374 19.455945,33.7558347 19.6446203,33.7558347 L20.7762658,33.7558347 C20.9649411,33.7558347 21.1063291,33.6122374 21.1063291,33.4169304 C21.1063291,33.2216233 20.9649411,33.0780261 20.7762658,33.0780261 L19.6446203,33.0780261 Z" id="Shape"></path>
        </g>
    </g>
</svg>