<?xml version="1.0" encoding="UTF-8"?>
<svg width="70px" height="70px" viewBox="0 0 70 70" version="1.1" xmlns="http://www.w3.org/2000/svg" xmlns:xlink="http://www.w3.org/1999/xlink">
    <!-- Generator: Sketch 46 (44423) - http://www.bohemiancoding.com/sketch -->
    <title>icn/support-orange</title>
    <desc>Created with Sketch.</desc>
    <defs></defs>
    <g id="Symbols" stroke="none" stroke-width="1" fill="none" fill-rule="evenodd">
        <g id="icn/support-orange" fill-rule="nonzero" fill="#FF7D25">
            <path d="M53.3376238,47.7670532 L44.1282929,44.9480808 C43.6569332,44.8038315 43.3402769,44.377196 43.3402769,43.8865041 L43.3402769,40.3145018 L43.876639,39.8698963 C44.8402475,39.0710244 45.4800728,37.9523593 45.6782749,36.7202508 L45.8009071,35.9574412 L46.5580808,35.9574412 C48.2600627,35.9574412 49.644651,34.5799832 49.644651,32.8867661 L49.644651,30.7961301 C49.644651,29.2927596 48.5527579,28.0390137 47.1165609,27.7767979 L48.0747628,21.8188153 C48.5098735,19.1131641 47.7346368,16.3658273 45.9475004,14.2809367 C44.1604869,12.1960462 41.5559667,11 38.8017812,11 L31.198096,11 C28.4437875,11 25.8392673,12.1956795 24.0522538,14.2806923 C22.2652404,16.3655828 21.4898807,19.1131641 21.9249914,21.8185708 L22.8831934,27.7765534 C21.4471192,28.0388914 20.3552261,29.2926374 20.3552261,30.7960078 L20.3552261,32.8866438 C20.3552261,34.579861 21.7398144,35.957319 23.4417964,35.957319 L24.1989701,35.957319 L24.3216022,36.7201285 C24.5198043,37.9523593 25.1596296,39.0707799 26.1232382,39.869774 L26.6596003,40.3145018 L26.6596003,43.8863819 C26.6596003,44.3770738 26.3429439,44.8038315 25.8715842,44.9479585 L16.6622533,47.7669309 C14.4718316,48.4376899 13,50.420139 13,52.7001327 L13,56.9293249 C13,58.622542 14.3845883,60 16.0865703,60 L53.9134297,60 C55.6154117,60 57,58.622542 57,56.9293249 L57,52.7001327 C57,50.420139 55.5281684,48.4376899 53.3376238,47.7670532 Z M47.6746723,30.7958856 L47.6746723,32.8865216 C47.6746723,33.4989696 47.173822,33.9972408 46.5582036,33.9972408 L46.1162118,33.9972408 L46.8050654,29.7135273 C47.3023523,29.8258706 47.6746723,30.2680312 47.6746723,30.7958856 Z M23.4417964,33.9972408 C22.826178,33.9972408 22.3253277,33.4989696 22.3253277,32.8865216 L22.3253277,30.7958856 C22.3253277,30.2680312 22.6976477,29.8258706 23.1946889,29.7135273 L23.8836653,33.9972408 L23.4417964,33.9972408 L23.4417964,33.9972408 Z M23.8706403,21.5090461 C23.526705,19.370979 24.1393743,17.1999057 25.5514872,15.552286 C26.9637231,13.9047885 29.0218052,12.9598337 31.1982188,12.9598337 L38.801904,12.9598337 C40.9783176,12.9598337 43.0363998,13.9046663 44.4486356,15.552286 C45.8607486,17.1997835 46.4735408,19.370979 46.1296055,21.5090461 L45.1299937,27.7252104 L44.296267,27.7252104 C44.2639501,27.7252104 44.2367941,27.7022284 44.2315104,27.6705669 L43.4734765,23.1454193 C43.3091888,22.1648912 42.4646489,21.4531801 41.4654057,21.4531801 L28.5350858,21.4531801 C27.5358426,21.4531801 26.6913028,22.1648912 26.527015,23.1455415 L25.7689811,27.6705669 C25.7635745,27.7022284 25.7364185,27.7252104 25.7042245,27.7252104 L24.8704979,27.7252104 L23.8706403,21.5090461 Z M26.2670053,36.4104816 L25.1854339,29.6852887 L25.7039787,29.6852887 C26.7032219,29.6852887 27.5477618,28.9735776 27.7120496,27.9929272 L28.4700834,23.4679019 C28.47549,23.4362404 28.5026461,23.4132584 28.5348401,23.4132584 L41.465037,23.4132584 C41.4973539,23.4132584 41.52451,23.4362404 41.5297937,23.4679019 L42.2878275,27.9930495 C42.4521153,28.9735776 43.2966552,29.6852887 44.2958984,29.6852887 L44.8144432,29.6852887 L44.0573924,34.3929482 C43.8367087,34.6399681 41.7870475,36.9319118 35.9116536,37.1136743 C35.6694306,37.1211678 35.332232,36.9467322 34.8828505,36.9467322 C34.33887,36.9467322 33.8438422,37.3327148 33.8438422,38.1548047 C33.8438422,38.9768945 34.3387471,39.2825464 34.8828505,39.2825464 C35.2550076,39.2825464 35.6031418,39.0762289 35.8436795,39.0694873 C39.5608024,38.9653066 41.9322856,38.0959671 43.479006,37.2416262 C43.2803124,37.6718068 42.9867571,38.0563899 42.6155429,38.3642031 L38.398373,41.8604135 C38.0097101,42.1826517 37.5169697,42.3600293 37.0109585,42.3600293 L32.9889186,42.3600293 C32.4830303,42.3600293 31.990167,42.1825294 31.6015041,41.8604135 L27.3843342,38.3642031 C26.7869018,37.8684992 26.3898832,37.1746359 26.2670053,36.4104816 Z M26.4509536,46.8214872 C27.7541967,46.4226014 28.6298247,45.2431805 28.6298247,43.8866264 L28.6298247,41.9480633 L30.3402852,43.3662289 C31.082345,43.9813664 32.0230983,44.3202298 32.9889186,44.3202298 L37.0109585,44.3202298 C37.9769017,44.3202298 38.9175322,43.9813664 39.6595919,43.3662289 L41.3700524,41.947941 L41.3700524,43.8865041 C41.3700524,45.2430582 42.2456804,46.4224791 43.5489236,46.821365 L44.0462105,46.9735601 C40.5537744,52.3041808 35.9116927,53.6239391 34.9976039,53.8376236 C34.0744221,53.6269952 29.4582676,52.3321749 25.953298,46.9736824 L26.4509536,46.8214872 Z M46.2232718,58.0399218 L22.7777778,58.0399218 L16.5888248,58.040044 C15.6962644,58.040044 14.9701016,57.5431973 14.9701016,56.9325 L14.9701016,52.7153977 C14.9701016,52.1623571 16.2227147,50.3132051 16.5888248,49.8545117 L16.9558488,49.7437621 C17.0486349,49.7051176 17.1438125,49.6702655 17.2416227,49.6403374 L24.000768,47.571461 C28.3741158,54.6573993 34.5691286,55.7607838 34.8378626,55.805281 C34.8914374,55.8142049 34.9455036,55.8186057 34.9998157,55.8186057 C35.0541277,55.8186057 35.108194,55.8142049 35.1617688,55.805281 C35.4305028,55.7606615 41.6257614,54.6573993 45.9988634,47.571461 L52.7580087,49.6404596 C52.8870809,49.6799534 53.011477,49.7280217 53.1319888,49.7820642 L53.4637912,49.8823853 C54.0461372,50.3600635 55.0298984,51.3225935 55.0298984,51.9548012 L55.0298984,56.7742355 C55.0298984,57.4721995 54.2108269,58.040044 53.2040682,58.040044 L46.2232718,58.040044 Z" id="Shape"></path>
            <path d="M3,3 L3,67 L67,67 L67,3 L3,3 Z M0,0 L70,0 L70,70 L0,70 L0,0 Z" id="Rectangle-3-Copy" fill-opacity="0.5"></path>
        </g>
    </g>
</svg>