<?xml version="1.0" encoding="UTF-8"?>
<svg width="40px" height="40px" viewBox="0 0 40 40" version="1.1" xmlns="http://www.w3.org/2000/svg" xmlns:xlink="http://www.w3.org/1999/xlink">
    <!-- Generator: Sketch 46 (44423) - http://www.bohemiancoding.com/sketch -->
    <title>icn/valuations-risk-survey</title>
    <desc>Created with Sketch.</desc>
    <defs></defs>
    <g id="Symbols" stroke="none" stroke-width="1" fill="none" fill-rule="evenodd">
        <g id="icn/valuations-risk-survey" fill-rule="nonzero" fill="#FFFFFF">
            <path d="M15.5833333,37.0217391 C14.074536,37.0217391 12.8333333,35.7913295 12.8333333,34.2934783 L12.8333333,26.0326087 C12.8333333,25.4612984 12.6437823,25.0083915 12.156441,24.378529 C11.8569401,23.9914401 10.3680997,22.4019692 10.1872688,22.1963469 C8.11112687,19.8355717 7,17.2819581 7,13.6413043 C7,6.66850766 12.7184988,1 19.75,1 C26.7815012,1 32.5,6.66850766 32.5,13.6413043 C32.5,17.1978467 31.41666,19.5473914 29.3080522,21.8142918 C29.0600409,22.0809213 28.2404369,22.92674 28.2536774,22.9128723 C27.8732471,23.3113252 27.6192769,23.600559 27.4127521,23.8805644 C26.8790522,24.6229975 26.6666667,25.2186632 26.6666667,26.0326087 L26.6666667,34.2934783 C26.6666667,35.7913295 25.425464,37.0217391 23.9166667,37.0217391 L23.1405889,37.0217391 C22.6724473,38.4804773 21.3147265,39.5 19.75,39.5 C18.1852735,39.5 16.8275527,38.4804773 16.3594111,37.0217391 L15.5833333,37.0217391 Z M24.5,26.0326087 C24.5,24.7932364 24.895338,23.6872788 25.6146487,22.6856904 C25.9879642,22.1658754 26.3454282,21.7647139 27.0634958,21.0213856 C27.146985,20.934999 27.146985,20.934999 27.2303554,20.8486993 C27.4270121,20.6449976 27.5594233,20.5061704 27.6919478,20.3636973 C29.5744341,18.3398939 30.3333333,16.7154816 30.3333333,13.6413043 C30.3333333,7.83841106 25.6057415,3.15217391 19.75,3.15217391 C13.8942585,3.15217391 9.16666667,7.83841106 9.16666667,13.6413043 C9.16666667,16.8162731 9.98935538,18.7085596 11.8127312,20.7819139 C11.9323712,20.9179562 12.058611,21.0576431 12.2020163,21.213223 C12.3401656,21.3631004 12.8338901,21.8902047 12.9334371,21.9977898 C13.3214829,22.4171693 13.5994714,22.7368307 13.8539758,23.0657646 C14.5997565,24.0296482 15,24.97358 15,26.0326087 L15,29.9130435 L24.5,29.9130435 L24.5,26.0326087 Z M15.6488947,15.2455375 C15.3464771,14.9686761 15.227855,14.5454695 15.3430194,14.1530343 C15.4580241,13.7611434 15.7862066,13.4678939 16.1588449,13.4029869 C16.2031392,13.3889487 16.2482959,13.3777577 16.294035,13.3694827 C16.6471235,13.3391572 16.9709051,13.4626057 17.1916281,13.6960944 L19.75,16.2322196 L22.3083607,13.6961055 C22.5854318,13.4214089 22.9887726,13.3142557 23.3667623,13.4146485 C23.7452137,13.515164 24.0412277,13.808604 24.1429087,14.1848145 C24.244716,14.5614925 24.1360729,14.9633605 23.8582947,15.2386883 L20.8333333,18.2373456 L20.8333333,28.7608696 L18.6666667,28.7608696 L18.6666667,18.237339 L15.6488947,15.2455375 Z M15,34.2934783 C15,34.6130183 15.2587973,34.8695652 15.5833333,34.8695652 L17.0173557,34.8746885 C17.1622354,34.8448977 17.3117229,34.8448977 17.40625,34.8695652 L23.9166667,34.8695652 C24.2412027,34.8695652 24.5,34.6130183 24.5,34.2934783 L24.5,32.0652174 L15,32.0652174 L15,34.2934783 Z M19.75,37.3478261 C20.0914771,37.3478261 20.4056177,37.2292602 20.6519031,37.0217391 L18.8480969,37.0217391 C19.0943823,37.2292602 19.4085229,37.3478261 19.75,37.3478261 Z" id="Shape"></path>
        </g>
    </g>
</svg>